<svg height='150px' width='150px' xmlns="http://www.w3.org/2000/svg" viewBox="0 0 480.64 464.75">

<defs>
<radialGradient id="a" cx="238.05" cy="231.56" r="199.12" gradientTransform="matrix(.96 0 0 .93 11.1 16.78)" gradientUnits="userSpaceOnUse"><stop offset=".8" stop-color="#fff"/><stop offset=".9" stop-color="#fdfdfd"/><stop offset=".94" stop-color="#f6f6f6"/><stop offset=".97" stop-color="#e9e9e9"/><stop offset=".99" stop-color="#d8d8d8"/><stop offset="1" stop-color="#cecece"/></radialGradient><radialGradient id="b" cx="240.32" cy="232.38" r="142.78" gradientUnits="userSpaceOnUse"><stop offset=".42" stop-color="#d9fb4c" stop-opacity=".8"/><stop offset=".52" stop-color="#d4f84e" stop-opacity=".81"/><stop offset=".63" stop-color="#c3ee54" stop-opacity=".83"/><stop offset=".73" stop-color="#a7df5f" stop-opacity=".86"/><stop offset=".83" stop-color="#81c96e" stop-opacity=".91"/><stop offset=".94" stop-color="#50ad80" stop-opacity=".97"/><stop offset=".98" stop-color="#369e8a"/></radialGradient><radialGradient id="c" cx="240.32" cy="232.38" r="131.87" gradientUnits="userSpaceOnUse"><stop offset="0" stop-color="#fff" stop-opacity=".8"/><stop offset=".14" stop-color="#fcffee" stop-opacity=".8"/><stop offset=".39" stop-color="#f3ffc3" stop-opacity=".8"/><stop offset=".73" stop-color="#e5ff7d" stop-opacity=".8"/><stop offset="1" stop-color="#d8ff3f" stop-opacity=".8"/></radialGradient></defs>

<g data-name="Layer 2"><g data-name="Eyeball">


<ellipse className='outer_eye' cx="240.32" cy="232.38" rx="240.32" ry="232.38" fill="#333"/>


<ellipse className='sclera'  cx="240.32" cy="232.38" rx="191.74" ry="185.4" fill="url(#a)"/>


<circle cx="240.32" cy="232.38" r="146.4" opacity=".8" fill="url(#b)"/>

<path fill="url(#c)" d="M337.7 326.67l-51.76-44.03L325 338.68l-45.82-50.52 31.54 60.55-39.02-56.06 23.43 63.92-31.5-60.56 14.89 66.1-23.4-63.93 6.08 67.06-14.86-66.11-2.86 66.77-6.03-67.07-11.74 65.23 2.91-66.76-20.41 62.48L220 294.56l-28.69 58.56 20.44-62.46-36.42 53.55 28.71-58.54-43.49 47.55 36.46-53.53-49.75 40.66 43.52-47.52-55.08 33.01 49.78-40.62-59.39 24.74 55.11-32.97-62.59 16.02 59.41-24.7-64.62 7 62.6-15.99-65.45-2.15 64.63-6.96-65.06-11.26 65.45 2.19-63.46-20.17 65.06 11.31-60.67-28.69 63.44 20.2-56.76-36.68 60.66 28.73-51.79-44 56.74 36.72-45.85-50.48 51.76 44.03-39.06-56.04 45.82 50.52-31.54-60.55 39.03 56.06-23.44-63.92 31.51 60.56-14.89-66.1 23.39 63.93-6.07-67.06 14.85 66.11 2.86-66.77 6.03 67.07 11.74-65.23-2.9 66.76 20.4-62.48-11.78 65.22 28.68-58.56-20.44 62.46 36.43-53.55-28.72 58.54 43.5-47.55-36.47 53.53 49.75-40.66-43.52 47.52 55.08-33.01-49.78 40.62 59.39-24.74-55.11 32.97 62.59-16.02-59.4 24.7 64.62-7-62.6 15.99 65.44 2.15-64.62 6.96 65.05 11.26-65.44-2.19 63.45 20.17-65.05-11.31 60.67 28.69-63.45-20.2 56.76 36.68-60.65-28.73 51.78 44-56.74-36.72 45.85 50.48z"/><g>


<ellipse className='pupil' cx="240.32" cy="229.59" rx="86.62" ry="83.75" fill="#33312c"/>

<ellipse className='big_eye_reflection' cx="293.89" cy="166.63" rx="34.53" ry="33.54" transform="rotate(-78.76 293.915 166.632)" opacity=".87" fill="#fff"/>

<ellipse className='small_eye_reflection' cx="273.58" cy="224.25" rx="16.78" ry="16.35" transform="rotate(-87.2 273.594 224.247)" opacity=".95" fill="#fff"/>


</g></g></g></svg>